ffmpeg started on 2016-12-12 at 04:19:17
Report written to "Output/theora/results/ffmpeg/crowd_run_2160p504000k.log"
Command line:
Tools/ffmpeg/ffmpeg -benchmark -y -i Input/y4m/crowd_run_2160p50.y4m -c:v libtheora -b:v 4000k -an Output/theora/encoded/crowd_run_2160p504000k.mkv
ffmpeg version N-82227-gdb23fde Copyright (c) 2000-2016 the FFmpeg developers
  built with gcc 5.4.0 (Ubuntu 5.4.0-6ubuntu1~16.04.2) 20160609
  configuration: --prefix=/home/jaroslav/ffmpeg_build --pkg-config-flags=--static --extra-cflags=-I/home/jaroslav/ffmpeg_build/include --extra-ldflags=-L/home/jaroslav/ffmpeg_build/lib --bindir=/home/jaroslav/bin --enable-gpl --enable-libass --enable-libfdk-aac --enable-libfreetype --enable-libmp3lame --enable-libopus --enable-libtheora --enable-libvorbis --enable-libvpx --enable-libx264 --enable-libx265 --enable-nvenc --enable-libmfx --enable-libxvid --enable-libgsm --enable-libopencore-amrnb --enable-version3 --enable-nonfree
  libavutil      55. 35.100 / 55. 35.100
  libavcodec     57. 66.101 / 57. 66.101
  libavformat    57. 57.100 / 57. 57.100
  libavdevice    57.  2.100 / 57.  2.100
  libavfilter     6. 66.100 /  6. 66.100
  libswscale      4.  3.100 /  4.  3.100
  libswresample   2.  4.100 /  2.  4.100
  libpostproc    54.  2.100 / 54.  2.100
Input #0, yuv4mpegpipe, from 'Input/y4m/crowd_run_2160p50.y4m':
  Duration: 00:00:10.00, start: 0.000000, bitrate: 4976642 kb/s
    Stream #0:0: Video: rawvideo (I420 / 0x30323449), yuv420p(progressive), 3840x2160, SAR 1:1 DAR 16:9, 50 fps, 50 tbr, 50 tbn, 50 tbc
Output #0, matroska, to 'Output/theora/encoded/crowd_run_2160p504000k.mkv':
  Metadata:
    encoder         : Lavf57.57.100
    Stream #0:0: Video: theora (libtheora) (theo / 0x6F656874), yuv420p, 3840x2160 [SAR 1:1 DAR 16:9], q=2-31, 4000 kb/s, 50 fps, 1k tbn, 50 tbc
    Metadata:
      encoder         : Lavc57.66.101 libtheora
Stream mapping:
  Stream #0:0 -> #0:0 (rawvideo (native) -> theora (libtheora))
Press [q] to stop, [?] for help
frame=    3 fps=0.0 q=-0.0 size=       4kB time=00:00:00.04 bitrate= 779.5kbits/s speed=0.0521x    frame=    5 fps=3.4 q=-0.0 size=       4kB time=00:00:00.08 bitrate= 394.6kbits/s speed=0.0552x    frame=    7 fps=2.7 q=-0.0 size=       4kB time=00:00:00.12 bitrate= 264.1kbits/s speed=0.0466x    frame=    9 fps=2.7 q=-0.0 size=       4kB time=00:00:00.16 bitrate= 198.5kbits/s speed=0.049x    frame=   11 fps=2.8 q=-0.0 size=       4kB time=00:00:00.20 bitrate= 159.0kbits/s speed=0.0504x    frame=   12 fps=1.5 q=-0.0 size=       4kB time=00:00:00.22 bitrate= 144.6kbits/s speed=0.028x    frame=   13 fps=1.1 q=-0.0 size=     499kB time=00:00:00.24 bitrate=16975.2kbits/s speed=0.0201x    frame=   14 fps=1.1 q=-0.0 size=     499kB time=00:00:00.26 bitrate=15674.5kbits/s speed=0.0197x    frame=   16 fps=1.2 q=-0.0 size=     499kB time=00:00:00.30 bitrate=13591.5kbits/s speed=0.0217x    frame=   18 fps=1.2 q=-0.0 size=     499kB time=00:00:00.34 bitrate=11997.2kbits/s speed=0.0234x    frame=   20 fps=1.3 q=-0.0 size=     499kB time=00:00:00.38 bitrate=10737.6kbits/s speed=0.025x    frame=   22 fps=1.4 q=-0.0 size=     499kB time=00:00:00.42 bitrate=9717.4kbits/s speed=0.0264x    frame=   24 fps=1.4 q=-0.0 size=     499kB time=00:00:00.46 bitrate=8874.3kbits/s speed=0.0277x    frame=   26 fps=1.5 q=-0.0 size=     698kB time=00:00:00.50 bitrate=11415.1kbits/s speed=0.0291x    frame=   28 fps=1.6 q=-0.0 size=     698kB time=00:00:00.54 bitrate=10571.1kbits/s speed=0.0303x    frame=   30 fps=1.6 q=-0.0 size=     698kB time=00:00:00.58 bitrate=9843.3kbits/s speed=0.0313x    frame=   32 fps=1.7 q=-0.0 size=     698kB time=00:00:00.62 bitrate=9209.3kbits/s speed=0.0323x    frame=   34 fps=1.7 q=-0.0 size=     698kB time=00:00:00.66 bitrate=8652.0kbits/s speed=0.0332x    frame=   36 fps=1.7 q=-0.0 size=     698kB time=00:00:00.70 bitrate=8158.3kbits/s speed=0.034x    frame=   38 fps=1.8 q=-0.0 size=     827kB time=00:00:00.74 bitrate=9138.6kbits/s speed=0.035x    frame=   40 fps=1.8 q=-0.0 size=     827kB time=00:00:00.78 bitrate=8670.5kbits/s speed=0.0354x    frame=   42 fps=1.8 q=-0.0 size=     827kB time=00:00:00.82 bitrate=8248.1kbits/s speed=0.0361x    frame=   44 fps=1.9 q=-0.0 size=     827kB time=00:00:00.86 bitrate=7864.9kbits/s speed=0.0367x    frame=   46 fps=1.9 q=-0.0 size=     827kB time=00:00:00.90 bitrate=7515.7kbits/s speed=0.0373x    frame=   48 fps=1.9 q=-0.0 size=     827kB time=00:00:00.94 bitrate=7196.3kbits/s speed=0.0378x    frame=   50 fps=2.0 q=-0.0 size=     952kB time=00:00:00.98 bitrate=7952.3kbits/s speed=0.0386x    frame=   52 fps=2.0 q=-0.0 size=     952kB time=00:00:01.02 bitrate=7640.7kbits/s speed=0.0392x    frame=   54 fps=2.0 q=-0.0 size=     952kB time=00:00:01.06 bitrate=7352.7kbits/s speed=0.0396x    frame=   56 fps=2.0 q=-0.0 size=     952kB time=00:00:01.10 bitrate=7085.5kbits/s speed=0.0401x    frame=   58 fps=2.1 q=-0.0 size=     952kB time=00:00:01.14 bitrate=6837.1kbits/s speed=0.0405x    frame=   60 fps=2.1 q=-0.0 size=     952kB time=00:00:01.18 bitrate=6605.6kbits/s speed=0.0409x    frame=   62 fps=2.1 q=-0.0 size=    1079kB time=00:00:01.22 bitrate=7238.4kbits/s speed=0.0415x    frame=   64 fps=2.1 q=-0.0 size=    1079kB time=00:00:01.26 bitrate=7008.8kbits/s speed=0.0419x    frame=   66 fps=2.1 q=-0.0 size=    1079kB time=00:00:01.30 bitrate=6793.3kbits/s speed=0.0423x    frame=   68 fps=2.2 q=-0.0 size=    1079kB time=00:00:01.34 bitrate=6590.7kbits/s speed=0.0426x    frame=   70 fps=2.2 q=-0.0 size=    1079kB time=00:00:01.38 bitrate=6399.8kbits/s speed=0.0429x    frame=   72 fps=2.2 q=-0.0 size=    1079kB time=00:00:01.42 bitrate=6219.7kbits/s speed=0.0432x    frame=   74 fps=2.2 q=-0.0 size=    1204kB time=00:00:01.46 bitrate=6748.2kbits/s speed=0.0437x    frame=   76 fps=2.2 q=-0.0 size=    1204kB time=00:00:01.50 bitrate=6568.4kbits/s speed=0.044x    frame=   78 fps=2.2 q=-0.0 size=    1204kB time=00:00:01.54 bitrate=6397.9kbits/s speed=0.0443x    frame=   80 fps=2.3 q=-0.0 size=    1204kB time=00:00:01.58 bitrate=6236.0kbits/s speed=0.0446x    frame=   82 fps=2.3 q=-0.0 size=    1204kB time=00:00:01.62 bitrate=6082.1kbits/s speed=0.0448x    frame=   84 fps=2.3 q=-0.0 size=    1204kB time=00:00:01.66 bitrate=5935.6kbits/s speed=0.045x    frame=   86 fps=2.3 q=-0.0 size=    1328kB time=00:00:01.70 bitrate=6393.9kbits/s speed=0.0454x    frame=   88 fps=2.3 q=-0.0 size=    1328kB time=00:00:01.74 bitrate=6247.0kbits/s speed=0.0457x    frame=   90 fps=2.3 q=-0.0 size=    1328kB time=00:00:01.78 bitrate=6106.7kbits/s speed=0.0459x    frame=   92 fps=2.3 q=-0.0 size=    1328kB time=00:00:01.82 bitrate=5972.6kbits/s speed=0.0461x    frame=   94 fps=2.3 q=-0.0 size=    1328kB time=00:00:01.86 bitrate=5844.2kbits/s speed=0.0463x    frame=   96 fps=2.3 q=-0.0 size=    1328kB time=00:00:01.90 bitrate=5721.2kbits/s speed=0.0465x    frame=   98 fps=2.4 q=-0.0 size=    1451kB time=00:00:01.94 bitrate=6122.7kbits/s speed=0.0468x    frame=  100 fps=2.4 q=-0.0 size=    1451kB time=00:00:01.98 bitrate=5999.1kbits/s speed=0.0471x    frame=  102 fps=2.4 q=-0.0 size=    1451kB time=00:00:02.02 bitrate=5880.4kbits/s speed=0.0472x    frame=  104 fps=2.4 q=-0.0 size=    1451kB time=00:00:02.06 bitrate=5766.3kbits/s speed=0.0474x    frame=  106 fps=2.4 q=-0.0 size=    1451kB time=00:00:02.10 bitrate=5656.5kbits/s speed=0.0476x    frame=  108 fps=2.4 q=-0.0 size=    1451kB time=00:00:02.14 bitrate=5550.8kbits/s speed=0.0477x    frame=  110 fps=2.4 q=-0.0 size=    1577kB time=00:00:02.18 bitrate=5923.1kbits/s speed=0.048x    frame=  112 fps=2.4 q=-0.0 size=    1577kB time=00:00:02.22 bitrate=5816.4kbits/s speed=0.0482x    frame=  114 fps=2.4 q=-0.0 size=    1577kB time=00:00:02.26 bitrate=5713.5kbits/s speed=0.0484x    frame=  116 fps=2.4 q=-0.0 size=    1577kB time=00:00:02.30 bitrate=5614.2kbits/s speed=0.0485x    frame=  118 fps=2.5 q=-0.0 size=    1577kB time=00:00:02.34 bitrate=5518.3kbits/s speed=0.0486x    frame=  120 fps=2.5 q=-0.0 size=    1577kB time=00:00:02.38 bitrate=5425.6kbits/s speed=0.0488x    frame=  122 fps=2.5 q=-0.0 size=    1701kB time=00:00:02.42 bitrate=5755.6kbits/s speed=0.049x    frame=  124 fps=2.5 q=-0.0 size=    1701kB time=00:00:02.46 bitrate=5662.1kbits/s speed=0.0492x    frame=  126 fps=2.5 q=-0.0 size=    1701kB time=00:00:02.50 bitrate=5571.5kbits/s speed=0.0493x    frame=  128 fps=2.5 q=-0.0 size=    1701kB time=00:00:02.54 bitrate=5483.8kbits/s speed=0.0494x    frame=  130 fps=2.5 q=-0.0 size=    1701kB time=00:00:02.58 bitrate=5398.8kbits/s speed=0.0496x    frame=  132 fps=2.5 q=-0.0 size=    1701kB time=00:00:02.62 bitrate=5316.4kbits/s speed=0.0496x    frame=  134 fps=2.5 q=-0.0 size=    1826kB time=00:00:02.66 bitrate=5620.6kbits/s speed=0.0499x    frame=  136 fps=2.5 q=-0.0 size=    1826kB time=00:00:02.70 bitrate=5537.4kbits/s speed=0.05x    frame=  138 fps=2.5 q=-0.0 size=    1826kB time=00:00:02.74 bitrate=5456.6kbits/s speed=0.0501x    frame=  140 fps=2.5 q=-0.0 size=    1826kB time=00:00:02.78 bitrate=5378.1kbits/s speed=0.0502x    frame=  142 fps=2.5 q=-0.0 size=    1826kB time=00:00:02.82 bitrate=5301.9kbits/s speed=0.0503x    frame=  144 fps=2.5 q=-0.0 size=    1826kB time=00:00:02.86 bitrate=5227.7kbits/s speed=0.0504x    frame=  146 fps=2.5 q=-0.0 size=    1949kB time=00:00:02.90 bitrate=5504.0kbits/s speed=0.0506x    frame=  148 fps=2.6 q=-0.0 size=    1949kB time=00:00:02.94 bitrate=5429.2kbits/s speed=0.0507x    frame=  150 fps=2.6 q=-0.0 size=    1949kB time=00:00:02.98 bitrate=5356.3kbits/s speed=0.0508x    frame=  152 fps=2.6 q=-0.0 size=    1949kB time=00:00:03.02 bitrate=5285.4kbits/s speed=0.0509x    frame=  154 fps=2.6 q=-0.0 size=    1949kB time=00:00:03.06 bitrate=5216.3kbits/s speed=0.051x    frame=  156 fps=2.6 q=-0.0 size=    1949kB time=00:00:03.10 bitrate=5149.0kbits/s speed=0.051x    frame=  158 fps=2.6 q=-0.0 size=    2074kB time=00:00:03.14 bitrate=5408.1kbits/s speed=0.0512x    frame=  160 fps=2.6 q=-0.0 size=    2074kB time=00:00:03.18 bitrate=5340.1kbits/s speed=0.0513x    frame=  162 fps=2.6 q=-0.0 size=    2074kB time=00:00:03.22 bitrate=5273.8kbits/s speed=0.0514x    frame=  164 fps=2.6 q=-0.0 size=    2074kB time=00:00:03.26 bitrate=5209.1kbits/s speed=0.0515x    frame=  166 fps=2.6 q=-0.0 size=    2074kB time=00:00:03.30 bitrate=5145.9kbits/s speed=0.0515x    frame=  168 fps=2.6 q=-0.0 size=    2074kB time=00:00:03.34 bitrate=5084.3kbits/s speed=0.0516x    frame=  170 fps=2.6 q=-0.0 size=    2199kB time=00:00:03.38 bitrate=5329.0kbits/s speed=0.0517x    frame=  172 fps=2.6 q=-0.0 size=    2199kB time=00:00:03.42 bitrate=5266.7kbits/s speed=0.0518x    frame=  174 fps=2.6 q=-0.0 size=    2199kB time=00:00:03.46 bitrate=5205.8kbits/s speed=0.0519x    frame=  176 fps=2.6 q=-0.0 size=    2199kB time=00:00:03.50 bitrate=5146.3kbits/s speed=0.052x    frame=  178 fps=2.6 q=-0.0 size=    2199kB time=00:00:03.54 bitrate=5088.2kbits/s speed=0.052x    frame=  180 fps=2.6 q=-0.0 size=    2199kB time=00:00:03.58 bitrate=5031.4kbits/s speed=0.0517x    frame=  182 fps=2.6 q=-0.0 size=    2323kB time=00:00:03.62 bitrate=5256.5kbits/s speed=0.0519x    frame=  184 fps=2.6 q=-0.0 size=    2323kB time=00:00:03.66 bitrate=5199.1kbits/s speed=0.052x    frame=  186 fps=2.6 q=-0.0 size=    2323kB time=00:00:03.70 bitrate=5142.9kbits/s speed=0.0521x    frame=  188 fps=2.6 q=-0.0 size=    2323kB time=00:00:03.74 bitrate=5087.9kbits/s speed=0.0521x    frame=  190 fps=2.6 q=-0.0 size=    2323kB time=00:00:03.78 bitrate=5034.1kbits/s speed=0.0521x    frame=  192 fps=2.6 q=-0.0 size=    2323kB time=00:00:03.82 bitrate=4981.4kbits/s speed=0.0522x    frame=  194 fps=2.6 q=-0.0 size=    2449kB time=00:00:03.86 bitrate=5195.7kbits/s speed=0.0523x    frame=  196 fps=2.6 q=-0.0 size=    2449kB time=00:00:03.90 bitrate=5142.4kbits/s speed=0.0524x    frame=  198 fps=2.6 q=-0.0 size=    2449kB time=00:00:03.94 bitrate=5090.2kbits/s speed=0.0525x    frame=  200 fps=2.6 q=-0.0 size=    2449kB time=00:00:03.98 bitrate=5039.1kbits/s speed=0.0525x    frame=  202 fps=2.6 q=-0.0 size=    2449kB time=00:00:04.02 bitrate=4988.9kbits/s speed=0.0525x    frame=  204 fps=2.6 q=-0.0 size=    2449kB time=00:00:04.06 bitrate=4939.8kbits/s speed=0.0526x    frame=  206 fps=2.6 q=-0.0 size=    2575kB time=00:00:04.10 bitrate=5144.2kbits/s speed=0.0527x    frame=  208 fps=2.7 q=-0.0 size=    2575kB time=00:00:04.14 bitrate=5094.5kbits/s speed=0.0528x    frame=  210 fps=2.7 q=-0.0 size=    2575kB time=00:00:04.18 bitrate=5045.8kbits/s speed=0.0528x    frame=  212 fps=2.7 q=-0.0 size=    2575kB time=00:00:04.22 bitrate=4998.0kbits/s speed=0.0529x    frame=  214 fps=2.7 q=-0.0 size=    2575kB time=00:00:04.26 bitrate=4951.1kbits/s speed=0.0529x    frame=  216 fps=2.7 q=-0.0 size=    2575kB time=00:00:04.30 bitrate=4905.0kbits/s speed=0.0529x    frame=  218 fps=2.7 q=-0.0 size=    2702kB time=00:00:04.34 bitrate=5099.6kbits/s speed=0.0531x    frame=  219 fps=2.7 q=-0.0 size=    2702kB time=00:00:04.36 bitrate=5076.2kbits/s speed=0.0529x    frame=  221 fps=2.7 q=-0.0 size=    2702kB time=00:00:04.40 bitrate=5030.1kbits/s speed=0.0529x    frame=  223 fps=2.7 q=-0.0 size=    2702kB time=00:00:04.44 bitrate=4984.8kbits/s speed=0.053x    frame=  225 fps=2.7 q=-0.0 size=    2702kB time=00:00:04.48 bitrate=4940.3kbits/s speed=0.053x    frame=  227 fps=2.7 q=-0.0 size=    2702kB time=00:00:04.52 bitrate=4896.6kbits/s speed=0.053x    frame=  229 fps=2.7 q=-0.0 size=    2829kB time=00:00:04.56 bitrate=5081.9kbits/s speed=0.0531x    frame=  231 fps=2.7 q=-0.0 size=    2829kB time=00:00:04.60 bitrate=5037.7kbits/s speed=0.0532x    frame=  233 fps=2.7 q=-0.0 size=    2829kB time=00:00:04.64 bitrate=4994.3kbits/s speed=0.0532x    frame=  235 fps=2.7 q=-0.0 size=    2829kB time=00:00:04.68 bitrate=4951.6kbits/s speed=0.0533x    frame=  237 fps=2.7 q=-0.0 size=    2829kB time=00:00:04.72 bitrate=4909.7kbits/s speed=0.0533x    frame=  239 fps=2.7 q=-0.0 size=    2829kB time=00:00:04.76 bitrate=4868.4kbits/s speed=0.0533x    frame=  241 fps=2.7 q=-0.0 size=    2958kB time=00:00:04.80 bitrate=5046.5kbits/s speed=0.0533x    frame=  243 fps=2.7 q=-0.0 size=    2958kB time=00:00:04.84 bitrate=5004.8kbits/s speed=0.0535x    frame=  245 fps=2.7 q=-0.0 size=    2958kB time=00:00:04.88 bitrate=4963.8kbits/s speed=0.0533x    frame=  247 fps=2.7 q=-0.0 size=    2958kB time=00:00:04.92 bitrate=4923.4kbits/s speed=0.0534x    frame=  249 fps=2.7 q=-0.0 size=    2958kB time=00:00:04.96 bitrate=4883.7kbits/s speed=0.0534x    frame=  251 fps=2.7 q=-0.0 size=    2958kB time=00:00:05.00 bitrate=4844.7kbits/s speed=0.0534x    frame=  253 fps=2.7 q=-0.0 size=    3085kB time=00:00:05.04 bitrate=5013.5kbits/s speed=0.0534x    frame=  255 fps=2.7 q=-0.0 size=    3085kB time=00:00:05.08 bitrate=4974.0kbits/s speed=0.0536x    frame=  257 fps=2.7 q=-0.0 size=    3085kB time=00:00:05.12 bitrate=4935.2kbits/s speed=0.0536x    frame=  259 fps=2.7 q=-0.0 size=    3085kB time=00:00:05.16 bitrate=4896.9kbits/s speed=0.0536x    frame=  261 fps=2.7 q=-0.0 size=    3085kB time=00:00:05.20 bitrate=4859.3kbits/s speed=0.0537x    frame=  263 fps=2.7 q=-0.0 size=    3085kB time=00:00:05.24 bitrate=4822.2kbits/s speed=0.0537x    frame=  265 fps=2.7 q=-0.0 size=    3212kB time=00:00:05.28 bitrate=4983.2kbits/s speed=0.0537x    frame=  267 fps=2.7 q=-0.0 size=    3212kB time=00:00:05.32 bitrate=4945.8kbits/s speed=0.0538x    frame=  269 fps=2.7 q=-0.0 size=    3212kB time=00:00:05.36 bitrate=4908.9kbits/s speed=0.0539x    frame=  271 fps=2.7 q=-0.0 size=    3212kB time=00:00:05.40 bitrate=4872.5kbits/s speed=0.0539x    frame=  272 fps=2.7 q=-0.0 size=    3212kB time=00:00:05.42 bitrate=4854.5kbits/s speed=0.0537x    frame=  274 fps=2.7 q=-0.0 size=    3212kB time=00:00:05.46 bitrate=4819.0kbits/s speed=0.0538x    frame=  276 fps=2.7 q=-0.0 size=    3212kB time=00:00:05.50 bitrate=4783.9kbits/s speed=0.0538x    frame=  278 fps=2.7 q=-0.0 size=    3340kB time=00:00:05.54 bitrate=4937.6kbits/s speed=0.0539x    frame=  280 fps=2.7 q=-0.0 size=    3340kB time=00:00:05.58 bitrate=4902.2kbits/s speed=0.0539x    frame=  282 fps=2.7 q=-0.0 size=    3340kB time=00:00:05.62 bitrate=4867.3kbits/s speed=0.0539x    frame=  284 fps=2.7 q=-0.0 size=    3340kB time=00:00:05.66 bitrate=4832.9kbits/s speed=0.054x    frame=  286 fps=2.7 q=-0.0 size=    3340kB time=00:00:05.70 bitrate=4799.0kbits/s speed=0.054x    frame=  288 fps=2.7 q=-0.0 size=    3340kB time=00:00:05.74 bitrate=4765.6kbits/s speed=0.054x    frame=  290 fps=2.7 q=-0.0 size=    3468kB time=00:00:05.78 bitrate=4914.0kbits/s speed=0.0541x    frame=  292 fps=2.7 q=-0.0 size=    3468kB time=00:00:05.82 bitrate=4880.2kbits/s speed=0.0541x    frame=  294 fps=2.7 q=-0.0 size=    3468kB time=00:00:05.86 bitrate=4846.9kbits/s speed=0.0541x    frame=  296 fps=2.7 q=-0.0 size=    3468kB time=00:00:05.90 bitrate=4814.1kbits/s speed=0.0542x    frame=  298 fps=2.7 q=-0.0 size=    3468kB time=00:00:05.94 bitrate=4781.7kbits/s speed=0.0542x    frame=  300 fps=2.7 q=-0.0 size=    3468kB time=00:00:05.98 bitrate=4749.7kbits/s speed=0.0542x    frame=  302 fps=2.7 q=-0.0 size=    3595kB time=00:00:06.02 bitrate=4891.9kbits/s speed=0.0543x    frame=  304 fps=2.7 q=-0.0 size=    3595kB time=00:00:06.06 bitrate=4859.6kbits/s speed=0.0542x    frame=  306 fps=2.7 q=-0.0 size=    3595kB time=00:00:06.10 bitrate=4827.8kbits/s speed=0.0543x    frame=  308 fps=2.7 q=-0.0 size=    3595kB time=00:00:06.14 bitrate=4796.3kbits/s speed=0.0543x    frame=  310 fps=2.7 q=-0.0 size=    3595kB time=00:00:06.18 bitrate=4765.3kbits/s speed=0.0543x    frame=  312 fps=2.7 q=-0.0 size=    3595kB time=00:00:06.22 bitrate=4734.6kbits/s speed=0.0543x    frame=  314 fps=2.7 q=-0.0 size=    3721kB time=00:00:06.26 bitrate=4869.0kbits/s speed=0.0544x    frame=  316 fps=2.7 q=-0.0 size=    3721kB time=00:00:06.30 bitrate=4838.1kbits/s speed=0.0544x    frame=  318 fps=2.7 q=-0.0 size=    3721kB time=00:00:06.34 bitrate=4807.6kbits/s speed=0.0544x    frame=  320 fps=2.7 q=-0.0 size=    3721kB time=00:00:06.38 bitrate=4777.4kbits/s speed=0.0544x    frame=  322 fps=2.7 q=-0.0 size=    3721kB time=00:00:06.42 bitrate=4747.7kbits/s speed=0.0544x    frame=  324 fps=2.7 q=-0.0 size=    3721kB time=00:00:06.46 bitrate=4718.3kbits/s speed=0.0544x    frame=  326 fps=2.7 q=-0.0 size=    3845kB time=00:00:06.50 bitrate=4844.6kbits/s speed=0.0545x    frame=  328 fps=2.7 q=-0.0 size=    3845kB time=00:00:06.54 bitrate=4815.0kbits/s speed=0.0545x    frame=  330 fps=2.7 q=-0.0 size=    3845kB time=00:00:06.58 bitrate=4785.7kbits/s speed=0.0545x    frame=  332 fps=2.7 q=-0.0 size=    3845kB time=00:00:06.62 bitrate=4756.8kbits/s speed=0.0545x    frame=  334 fps=2.7 q=-0.0 size=    3845kB time=00:00:06.66 bitrate=4728.3kbits/s speed=0.0545x    frame=  336 fps=2.7 q=-0.0 size=    3845kB time=00:00:06.70 bitrate=4700.0kbits/s speed=0.0546x    frame=  338 fps=2.7 q=-0.0 size=    3971kB time=00:00:06.74 bitrate=4825.2kbits/s speed=0.0546x    frame=  340 fps=2.7 q=-0.0 size=    3971kB time=00:00:06.78 bitrate=4796.7kbits/s speed=0.0547x    frame=  342 fps=2.7 q=-0.0 size=    3971kB time=00:00:06.82 bitrate=4768.6kbits/s speed=0.0547x    frame=  344 fps=2.7 q=-0.0 size=    3971kB time=00:00:06.86 bitrate=4740.8kbits/s speed=0.0547x    frame=  346 fps=2.7 q=-0.0 size=    3971kB time=00:00:06.90 bitrate=4713.3kbits/s speed=0.0547x    frame=  348 fps=2.7 q=-0.0 size=    3971kB time=00:00:06.94 bitrate=4686.1kbits/s speed=0.0547x    frame=  350 fps=2.7 q=-0.0 size=    4097kB time=00:00:06.98 bitrate=4807.5kbits/s speed=0.0548x    frame=  352 fps=2.7 q=-0.0 size=    4097kB time=00:00:07.02 bitrate=4780.2kbits/s speed=0.0548x    frame=  354 fps=2.7 q=-0.0 size=    4097kB time=00:00:07.06 bitrate=4753.1kbits/s speed=0.0548x    frame=  356 fps=2.7 q=-0.0 size=    4097kB time=00:00:07.10 bitrate=4726.3kbits/s speed=0.0548x    frame=  358 fps=2.7 q=-0.0 size=    4097kB time=00:00:07.14 bitrate=4699.8kbits/s speed=0.0548x    frame=  360 fps=2.7 q=-0.0 size=    4097kB time=00:00:07.18 bitrate=4673.6kbits/s speed=0.0549x    frame=  362 fps=2.8 q=-0.0 size=    4223kB time=00:00:07.22 bitrate=4790.9kbits/s speed=0.0549x    frame=  364 fps=2.8 q=-0.0 size=    4223kB time=00:00:07.26 bitrate=4764.5kbits/s speed=0.055x    frame=  366 fps=2.8 q=-0.0 size=    4223kB time=00:00:07.30 bitrate=4738.4kbits/s speed=0.055x    frame=  368 fps=2.8 q=-0.0 size=    4223kB time=00:00:07.34 bitrate=4712.5kbits/s speed=0.055x    frame=  370 fps=2.8 q=-0.0 size=    4223kB time=00:00:07.38 bitrate=4687.0kbits/s speed=0.055x    frame=  372 fps=2.8 q=-0.0 size=    4223kB time=00:00:07.42 bitrate=4661.7kbits/s speed=0.055x    frame=  374 fps=2.8 q=-0.0 size=    4350kB time=00:00:07.46 bitrate=4776.0kbits/s speed=0.0551x    frame=  376 fps=2.8 q=-0.0 size=    4350kB time=00:00:07.50 bitrate=4750.6kbits/s speed=0.0551x    frame=  378 fps=2.8 q=-0.0 size=    4350kB time=00:00:07.54 bitrate=4725.4kbits/s speed=0.0551x    frame=  380 fps=2.8 q=-0.0 size=    4350kB time=00:00:07.58 bitrate=4700.4kbits/s speed=0.0551x    frame=  382 fps=2.8 q=-0.0 size=    4350kB time=00:00:07.62 bitrate=4675.8kbits/s speed=0.0551x    frame=  384 fps=2.8 q=-0.0 size=    4350kB time=00:00:07.66 bitrate=4651.3kbits/s speed=0.0551x    frame=  386 fps=2.8 q=-0.0 size=    4475kB time=00:00:07.70 bitrate=4760.6kbits/s speed=0.0552x    frame=  388 fps=2.8 q=-0.0 size=    4475kB time=00:00:07.74 bitrate=4736.0kbits/s speed=0.0552x    frame=  390 fps=2.8 q=-0.0 size=    4475kB time=00:00:07.78 bitrate=4711.6kbits/s speed=0.0552x    frame=  392 fps=2.8 q=-0.0 size=    4475kB time=00:00:07.82 bitrate=4687.5kbits/s speed=0.0552x    frame=  394 fps=2.8 q=-0.0 size=    4475kB time=00:00:07.86 bitrate=4663.7kbits/s speed=0.0552x    frame=  396 fps=2.8 q=-0.0 size=    4475kB time=00:00:07.90 bitrate=4640.1kbits/s speed=0.0552x    frame=  398 fps=2.8 q=-0.0 size=    4599kB time=00:00:07.94 bitrate=4744.7kbits/s speed=0.0552x    frame=  400 fps=2.8 q=-0.0 size=    4599kB time=00:00:07.98 bitrate=4720.9kbits/s speed=0.0553x    frame=  402 fps=2.8 q=-0.0 size=    4599kB time=00:00:08.02 bitrate=4697.4kbits/s speed=0.0553x    frame=  404 fps=2.8 q=-0.0 size=    4599kB time=00:00:08.06 bitrate=4674.1kbits/s speed=0.0553x    frame=  406 fps=2.8 q=-0.0 size=    4599kB time=00:00:08.10 bitrate=4651.0kbits/s speed=0.0552x    frame=  408 fps=2.8 q=-0.0 size=    4599kB time=00:00:08.14 bitrate=4628.2kbits/s speed=0.0552x    frame=  410 fps=2.8 q=-0.0 size=    4722kB time=00:00:08.18 bitrate=4728.3kbits/s speed=0.0553x    frame=  412 fps=2.8 q=-0.0 size=    4722kB time=00:00:08.22 bitrate=4705.3kbits/s speed=0.0553x    frame=  414 fps=2.8 q=-0.0 size=    4722kB time=00:00:08.26 bitrate=4682.5kbits/s speed=0.0553x    frame=  416 fps=2.8 q=-0.0 size=    4722kB time=00:00:08.30 bitrate=4659.9kbits/s speed=0.0553x    frame=  418 fps=2.8 q=-0.0 size=    4722kB time=00:00:08.34 bitrate=4637.6kbits/s speed=0.0553x    frame=  420 fps=2.8 q=-0.0 size=    4722kB time=00:00:08.38 bitrate=4615.5kbits/s speed=0.0551x    frame=  422 fps=2.8 q=-0.0 size=    4840kB time=00:00:08.42 bitrate=4708.4kbits/s speed=0.0552x    frame=  424 fps=2.8 q=-0.0 size=    4840kB time=00:00:08.46 bitrate=4686.1kbits/s speed=0.0552x    frame=  426 fps=2.8 q=-0.0 size=    4840kB time=00:00:08.50 bitrate=4664.1kbits/s speed=0.0552x    frame=  428 fps=2.8 q=-0.0 size=    4840kB time=00:00:08.54 bitrate=4642.2kbits/s speed=0.0552x    frame=  430 fps=2.8 q=-0.0 size=    4840kB time=00:00:08.58 bitrate=4620.6kbits/s speed=0.0552x    frame=  432 fps=2.8 q=-0.0 size=    4840kB time=00:00:08.62 bitrate=4599.2kbits/s speed=0.0552x    frame=  434 fps=2.8 q=-0.0 size=    4957kB time=00:00:08.66 bitrate=4689.0kbits/s speed=0.0553x    frame=  436 fps=2.8 q=-0.0 size=    4957kB time=00:00:08.70 bitrate=4667.5kbits/s speed=0.0553x    frame=  438 fps=2.8 q=-0.0 size=    4957kB time=00:00:08.74 bitrate=4646.1kbits/s speed=0.0553x    frame=  440 fps=2.8 q=-0.0 size=    4957kB time=00:00:08.78 bitrate=4624.9kbits/s speed=0.0553x    frame=  442 fps=2.8 q=-0.0 size=    4957kB time=00:00:08.82 bitrate=4604.0kbits/s speed=0.0553x    frame=  444 fps=2.8 q=-0.0 size=    4957kB time=00:00:08.86 bitrate=4583.2kbits/s speed=0.0553x    frame=  446 fps=2.8 q=-0.0 size=    5078kB time=00:00:08.90 bitrate=4673.6kbits/s speed=0.0553x    frame=  448 fps=2.8 q=-0.0 size=    5078kB time=00:00:08.94 bitrate=4652.7kbits/s speed=0.0553x    frame=  450 fps=2.8 q=-0.0 size=    5078kB time=00:00:08.98 bitrate=4631.9kbits/s speed=0.0553x    frame=  452 fps=2.8 q=-0.0 size=    5078kB time=00:00:09.02 bitrate=4611.4kbits/s speed=0.0553x    frame=  454 fps=2.8 q=-0.0 size=    5078kB time=00:00:09.06 bitrate=4591.0kbits/s speed=0.0553x    frame=  456 fps=2.8 q=-0.0 size=    5078kB time=00:00:09.10 bitrate=4570.9kbits/s speed=0.0553x    frame=  458 fps=2.8 q=-0.0 size=    5202kB time=00:00:09.14 bitrate=4662.0kbits/s speed=0.0554x    frame=  460 fps=2.8 q=-0.0 size=    5202kB time=00:00:09.18 bitrate=4641.7kbits/s speed=0.0554x    frame=  462 fps=2.8 q=-0.0 size=    5202kB time=00:00:09.22 bitrate=4621.5kbits/s speed=0.0554x    frame=  464 fps=2.8 q=-0.0 size=    5202kB time=00:00:09.26 bitrate=4601.6kbits/s speed=0.0554x    frame=  466 fps=2.8 q=-0.0 size=    5202kB time=00:00:09.30 bitrate=4581.8kbits/s speed=0.0554x    frame=  468 fps=2.8 q=-0.0 size=    5202kB time=00:00:09.34 bitrate=4562.2kbits/s speed=0.0554x    frame=  470 fps=2.8 q=-0.0 size=    5324kB time=00:00:09.38 bitrate=4649.1kbits/s speed=0.0554x    frame=  472 fps=2.8 q=-0.0 size=    5324kB time=00:00:09.42 bitrate=4629.4kbits/s speed=0.0555x    frame=  474 fps=2.8 q=-0.0 size=    5324kB time=00:00:09.46 bitrate=4609.8kbits/s speed=0.0555x    frame=  476 fps=2.8 q=-0.0 size=    5324kB time=00:00:09.50 bitrate=4590.4kbits/s speed=0.0555x    frame=  478 fps=2.8 q=-0.0 size=    5324kB time=00:00:09.54 bitrate=4571.2kbits/s speed=0.0555x    frame=  480 fps=2.8 q=-0.0 size=    5324kB time=00:00:09.58 bitrate=4552.1kbits/s speed=0.0555x    frame=  482 fps=2.8 q=-0.0 size=    5448kB time=00:00:09.62 bitrate=4639.1kbits/s speed=0.0555x    frame=  484 fps=2.8 q=-0.0 size=    5448kB time=00:00:09.66 bitrate=4619.9kbits/s speed=0.0555x    frame=  486 fps=2.8 q=-0.0 size=    5448kB time=00:00:09.70 bitrate=4600.8kbits/s speed=0.0555x    frame=  488 fps=2.8 q=-0.0 size=    5448kB time=00:00:09.74 bitrate=4581.9kbits/s speed=0.0555x    frame=  490 fps=2.8 q=-0.0 size=    5448kB time=00:00:09.78 bitrate=4563.2kbits/s speed=0.0555x    frame=  492 fps=2.8 q=-0.0 size=    5448kB time=00:00:09.82 bitrate=4544.6kbits/s speed=0.0555x    frame=  494 fps=2.8 q=-0.0 size=    5572kB time=00:00:09.86 bitrate=4629.2kbits/s speed=0.0556x    frame=  496 fps=2.8 q=-0.0 size=    5572kB time=00:00:09.90 bitrate=4610.5kbits/s speed=0.0556x    frame=  498 fps=2.8 q=-0.0 size=    5572kB time=00:00:09.94 bitrate=4592.0kbits/s speed=0.0556x    frame=  500 fps=2.8 q=-0.0 size=    5572kB time=00:00:09.98 bitrate=4573.6kbits/s speed=0.0556x    frame=  500 fps=2.8 q=-0.0 Lsize=    5698kB time=00:00:09.98 bitrate=4676.5kbits/s speed=0.0555x    
video:5689kB audio:0kB subtitle:0kB other streams:0kB global headers:3kB muxing overhead: 0.151502%
bench: utime=157.292s
bench: maxrss=196568kB
